<svg width="15" height="14" viewBox="0 0 15 14" fill="none" xmlns="http://www.w3.org/2000/svg">
<path d="M0 13.5457V12.0457C0 12.0457 3.75 10.5457 7.5 10.5457C11.25 10.5457 15 12.0457 15 12.0457V13.5457H0ZM6.975 3.87072C6.075 0.945725 1.5 1.62072 1.5 1.62072C1.5 1.62072 1.65 7.47072 5.925 6.57072C5.625 4.39572 4.5 3.79572 4.5 3.79572C6.6 3.79572 6.75 6.34572 6.75 6.34572V9.79572H8.25V6.64573C8.25 6.64573 8.25 3.72072 10.5 2.97072C10.5 2.97072 9 5.22072 9 6.72072C14.25 7.24572 14.25 0.0457247 14.25 0.0457247C14.25 0.0457247 7.575 -0.704275 6.975 3.87072Z" fill="white"/>
</svg>
