<svg width="25" height="25" viewBox="0 0 25 25" fill="none" xmlns="http://www.w3.org/2000/svg">
<g filter="url(#filter0_dd_128_246)">
<g clip-path="url(#clip0_128_246)">
<circle cx="12.5" cy="11.875" r="9.84375" fill="#80FF31" stroke="#0FEE1E" stroke-width="0.3125"/>
<circle cx="12.5" cy="11.875" r="8.59375" fill="url(#paint0_linear_128_246)" stroke="#32E647" stroke-width="0.3125"/>
<path d="M12.3057 18.375C11.9186 18.375 11.5288 18.3311 11.1361 18.2433C10.7434 18.1556 10.3416 18.0293 9.93063 17.8646C10.0714 16.4448 10.4819 15.1188 11.1621 13.8867C11.8424 12.6547 12.7162 11.5693 13.7835 10.6305C12.4933 11.2876 11.3763 12.156 10.4324 13.2355C9.48846 14.315 8.8286 15.5471 8.45282 16.9317C8.4059 16.8965 8.36204 16.8585 8.32122 16.8177L8.18892 16.6853C7.63768 16.1338 7.2185 15.5178 6.93138 14.8372C6.64426 14.1566 6.50047 13.4467 6.5 12.7075C6.5 11.9095 6.65834 11.1468 6.97501 10.4193C7.29168 9.69182 7.73151 9.04645 8.29448 8.48321C9.11549 7.66183 10.1331 7.08686 11.3472 6.75831C12.5614 6.42976 14.2003 6.31242 16.2641 6.40629C16.569 6.41802 16.8505 6.48561 17.1086 6.60905C17.3666 6.7325 17.5953 6.89372 17.7947 7.09273C17.9941 7.29174 18.1524 7.5236 18.2697 7.78832C18.387 8.05304 18.4574 8.33748 18.4808 8.64162C18.5512 10.7537 18.428 12.4024 18.1114 13.5875C17.7947 14.7727 17.2317 15.77 16.4224 16.5797C15.8477 17.1547 15.2055 17.5977 14.4957 17.9089C13.7858 18.2201 13.0558 18.3755 12.3057 18.375Z" fill="#42A938"/>
</g>
</g>
<defs>
<filter id="filter0_dd_128_246" x="0" y="0" width="25" height="25" filterUnits="userSpaceOnUse" color-interpolation-filters="sRGB">
<feFlood flood-opacity="0" result="BackgroundImageFix"/>
<feColorMatrix in="SourceAlpha" type="matrix" values="0 0 0 0 0 0 0 0 0 0 0 0 0 0 0 0 0 0 127 0" result="hardAlpha"/>
<feOffset dy="0.625"/>
<feGaussianBlur stdDeviation="1.25"/>
<feColorMatrix type="matrix" values="0 0 0 0 0 0 0 0 0 0 0 0 0 0 0 0 0 0 0.12 0"/>
<feBlend mode="normal" in2="BackgroundImageFix" result="effect1_dropShadow_128_246"/>
<feColorMatrix in="SourceAlpha" type="matrix" values="0 0 0 0 0 0 0 0 0 0 0 0 0 0 0 0 0 0 127 0" result="hardAlpha"/>
<feOffset/>
<feGaussianBlur stdDeviation="0.3125"/>
<feColorMatrix type="matrix" values="0 0 0 0 0 0 0 0 0 0 0 0 0 0 0 0 0 0 0.039 0"/>
<feBlend mode="normal" in2="effect1_dropShadow_128_246" result="effect2_dropShadow_128_246"/>
<feBlend mode="normal" in="SourceGraphic" in2="effect2_dropShadow_128_246" result="shape"/>
</filter>
<linearGradient id="paint0_linear_128_246" x1="19.6094" y1="16.7969" x2="4.6875" y2="8.125" gradientUnits="userSpaceOnUse">
<stop stop-color="#A0FE58"/>
<stop offset="0.493004" stop-color="#42F81E"/>
<stop offset="0.978599" stop-color="#8DFE58"/>
</linearGradient>
<clipPath id="clip0_128_246">
<path d="M2.5 11.875C2.5 6.35215 6.97715 1.875 12.5 1.875C18.0228 1.875 22.5 6.35215 22.5 11.875C22.5 17.3978 18.0228 21.875 12.5 21.875C6.97715 21.875 2.5 17.3978 2.5 11.875Z" fill="white"/>
</clipPath>
</defs>
</svg>
